<svg width="48" height="48" viewBox="0 0 48 48" fill="none" xmlns="http://www.w3.org/2000/svg">
<path d="M0 8C0 3.58172 3.58172 0 8 0H40C44.4183 0 48 3.58172 48 8V40C48 44.4183 44.4183 48 40 48H8C3.58172 48 0 44.4183 0 40V8Z" fill="#F5F5F5"/>
<g clip-path="url(#clip0_13297_2532)">
<path d="M36 9H12C10.3431 9 9 10.3431 9 12V36C9 37.6569 10.3431 39 12 39H36C37.6569 39 39 37.6569 39 36V12C39 10.3431 37.6569 9 36 9Z" fill="#00009F"/>
<path d="M22.6561 29.5962H13.7137L15.117 26.3508C15.5291 25.398 16.4678 24.7812 17.5059 24.7812H28.1584L27.4338 26.4568C26.6098 28.3624 24.7322 29.5962 22.6561 29.5962Z" fill="white"/>
<path d="M30.0643 23.2445H17.4857L18.2103 21.5689C19.0344 19.6633 20.912 18.4297 22.9881 18.4297H33.8565L32.4531 21.6749C32.0411 22.6277 31.1023 23.2445 30.0643 23.2445Z" fill="white"/>
</g>
<defs>
<clipPath id="clip0_13297_2532">
<rect width="30" height="30" fill="white" transform="translate(9 9)"/>
</clipPath>
</defs>
</svg>
